<?xml version="1.0" encoding="UTF-8"?>
<svg id="Layer_1" data-name="Layer 1" xmlns="http://www.w3.org/2000/svg" viewBox="0 0 250 95.01">
  <g>
    <path d="M135.92,76.21l-9.47-25.89h-7.78l-14.87,40.66h7.26l11.44-32.53,8.18,23.25c1.9-1.64,3.67-3.48,5.24-5.49Z"/>
    <path d="M132.42,84.81c-.17.14-.34.26-.51.4l2.03,5.77h7.38l-4.01-10.97c-1.51,1.74-3.14,3.35-4.89,4.8Z"/>
  </g>
  <path d="M8.2,90.97v-40.66h6.97v35.2h18.12v5.46H8.2Z"/>
  <path d="M35.09,90.97l14.87-40.66h7.78l14.87,40.66h-7.38l-11.44-32.53-11.44,32.53h-7.26ZM41.71,81.39l1.86-5.52h20.04l1.86,5.52h-23.76Z"/>
  <path d="M74.53,90.97v-5.34l19.17-29.45h-19.05v-5.87h27.12v5.34l-19.28,29.45h19.4v5.87h-27.36Z"/>
  <path d="M193.65,91.67c-2.94,0-5.61-.58-7.99-1.74-2.38-1.16-4.28-2.94-5.69-5.34-1.41-2.4-2.12-5.42-2.12-9.06v-25.21h6.97v25.27c0,2.21.37,4.03,1.1,5.46.74,1.43,1.77,2.51,3.11,3.22,1.34.72,2.91,1.08,4.73,1.08s3.46-.36,4.79-1.08c1.34-.72,2.36-1.79,3.08-3.22.72-1.43,1.07-3.25,1.07-5.46v-25.27h6.97v25.21c0,3.64-.72,6.66-2.15,9.06-1.43,2.4-3.37,4.18-5.81,5.34s-5.13,1.74-8.07,1.74Z"/>
  <path d="M228.85,91.67c-2.94,0-5.56-.52-7.84-1.57-2.28-1.05-4.07-2.54-5.34-4.47-1.28-1.94-1.94-4.24-1.98-6.91h7.38c0,1.36.32,2.56.96,3.63.64,1.07,1.53,1.91,2.67,2.53s2.53.93,4.15.93c1.39,0,2.6-.22,3.63-.67,1.03-.44,1.82-1.08,2.38-1.92s.84-1.81.84-2.93c0-1.28-.3-2.33-.9-3.17s-1.42-1.54-2.47-2.12c-1.04-.58-2.25-1.09-3.6-1.54-1.36-.44-2.79-.92-4.3-1.42-3.21-1.08-5.63-2.47-7.26-4.15-1.63-1.68-2.44-3.94-2.44-6.77,0-2.36.56-4.39,1.68-6.1,1.12-1.7,2.7-3.03,4.73-3.98,2.03-.95,4.39-1.42,7.06-1.42s5.08.48,7.12,1.45c2.03.97,3.64,2.31,4.82,4.04,1.18,1.72,1.79,3.79,1.83,6.19h-7.43c-.04-1.01-.31-1.95-.81-2.82-.5-.87-1.23-1.59-2.18-2.15-.95-.56-2.1-.84-3.46-.84-1.16-.04-2.2.15-3.11.55-.91.41-1.63.99-2.15,1.74-.52.76-.78,1.69-.78,2.82s.24,1.99.73,2.7c.48.72,1.19,1.32,2.12,1.8.93.49,2.01.94,3.25,1.37,1.24.43,2.59.89,4.07,1.39,2.01.66,3.84,1.46,5.49,2.41,1.65.95,2.95,2.18,3.92,3.69.97,1.51,1.45,3.47,1.45,5.87,0,2.09-.54,4.04-1.63,5.84-1.08,1.8-2.67,3.25-4.76,4.36s-4.7,1.66-7.84,1.66Z"/>
  <g>
    <path d="M14.89,44.51c-1.07,0-1.99-.17-2.77-.5s-1.4-.89-1.83-1.66-.66-1.82-.66-3.14v-7.34h-2.7v-3.17h2.7l.44-4.17h3.32v4.17h4.3v3.17h-4.3v7.34c0,.8.17,1.34.52,1.65.35.3.93.45,1.74.45h1.94v3.2h-2.7Z"/>
    <path d="M19.34,44.51v-22.58h3.76v9.22c.52-.86,1.23-1.54,2.13-2.05.9-.51,1.91-.77,3.04-.77,1.3,0,2.39.27,3.29.8.9.53,1.58,1.32,2.05,2.35s.71,2.33.71,3.87v9.16h-3.73v-8.81c0-1.36-.29-2.39-.86-3.1-.58-.71-1.45-1.07-2.62-1.07-.75,0-1.43.18-2.04.55-.61.37-1.09.89-1.44,1.57-.36.68-.53,1.51-.53,2.49v8.37h-3.76Z"/>
    <path d="M38.47,26.19c-.69,0-1.26-.21-1.71-.64-.45-.43-.67-.96-.67-1.58s.22-1.18.67-1.58c.45-.41,1.02-.61,1.71-.61s1.26.2,1.71.61c.45.41.67.94.67,1.58s-.22,1.16-.67,1.58c-.45.43-1.02.64-1.71.64ZM36.59,44.51v-15.81h3.76v15.81h-3.76Z"/>
    <path d="M42.83,44.51v-15.81h3.32l.28,2.63c.48-.92,1.17-1.65,2.07-2.2.9-.54,1.96-.81,3.2-.81s2.36.27,3.26.8c.9.53,1.59,1.31,2.09,2.34s.74,2.3.74,3.83v9.22h-3.76v-8.87c0-1.32-.29-2.33-.88-3.04-.59-.71-1.45-1.07-2.6-1.07-.75,0-1.43.18-2.02.53-.6.36-1.07.87-1.41,1.55-.35.68-.52,1.5-.52,2.46v8.44h-3.76Z"/>
    <path d="M59.89,44.51v-22.58h3.76v22.58h-3.76ZM70.08,44.51l-6.99-8.66,6.27-7.15h4.48l-7.81,8.69v-2.92l8.75,10.04h-4.7Z"/>
  </g>
  <path d="M11,19.37c13.33-7.92,32.8-12.44,54.23-11.43,11.48.54,21.86,1.76,32.36,5.39,3.85,1.33,7.84,2.99,11.65,5.05,3.81,2.06,7.42,4.54,10.5,7.5,8.91,8.58,14.49,21.7,11.53,33.34-2.56,10.06-11.95,18.94-23.31,20.73,0,0-4.65,11.62-4.65,11.62,3.63.57,7.36,0,11.62-1.16,3.93-1.07,5.05-1.59,8.69-3.42,2.57-1.29,4.98-2.94,7.15-4.77,4.39-3.68,7.87-8.29,10.3-13.34,6.5-13.51,5.31-29.01-4.44-40.65C120.59,9.06,93.39,3.22,68.68,3.22c-23.29,0-44.15,6.13-58.18,15.8l-3.58,2.75,4.08-2.4Z"/>
  <path d="M173.73,90.97l-8.49-17.04c.68-.23,1.33-.48,1.93-.8,2.13-1.12,3.7-2.61,4.7-4.47,1.01-1.86,1.51-3.87,1.51-6.04,0-2.32-.51-4.4-1.54-6.24-1.03-1.84-2.6-3.31-4.71-4.41-2.11-1.1-4.77-1.66-7.99-1.66h-11.23c.24,5.96-.88,12.07-3.35,17.95v22.71h6.97v-16.15h6.55l7.68,16.15h7.96ZM151.54,56.12h7.14c2.63,0,4.55.61,5.75,1.83,1.2,1.22,1.8,2.84,1.8,4.85s-.61,3.71-1.83,4.97c-1.22,1.26-3.13,1.89-5.72,1.89h-7.14v-13.53Z"/>
</svg>